<?xml version="1.0" encoding="UTF-8" standalone="no"?>
<!DOCTYPE svg PUBLIC "-//W3C//DTD SVG 1.1//EN" "http://www.w3.org/Graphics/SVG/1.1/DTD/svg11.dtd">
<svg width="100%" height="100%" viewBox="0 0 3898 3273" version="1.1" xmlns="http://www.w3.org/2000/svg" xmlns:xlink="http://www.w3.org/1999/xlink" xml:space="preserve" xmlns:serif="http://www.serif.com/" style="fill-rule:evenodd;clip-rule:evenodd;stroke-linejoin:round;stroke-miterlimit:2;">
    <g transform="matrix(1.1993,0,0,1.1993,-388.398,-846.949)">
        <g transform="matrix(23.1623,0,0,-23.1623,-479.102,3200.76)">
            <path d="M165.055,72.98C161.746,76.285 157.551,78.449 152.656,79.273L152.656,103.621C140.516,92.941 115.09,92.433 92.777,88.363C82.926,86.394 73.453,83.789 65.953,79.211C64.363,79.527 62.648,79.656 60.867,79.656L37.664,79.656L37.664,27.277L58.008,27.277C66.145,18.824 79.746,16.281 94.305,16.281C112.039,16.281 124.371,20.73 133.016,27.277L147.762,27.277C155.453,27.277 161.746,30.011 166.008,35.16C169.883,39.8 171.98,46.218 171.98,53.718C171.98,61.73 169.566,68.406 165.055,72.98M151.512,60.839C152.848,59.379 153.484,56.898 153.484,52.765C153.484,49.589 152.785,47.172 151.449,45.773C150.18,44.437 148.398,44.183 147.125,44.183L146.492,44.183C149.098,49.781 150.621,55.5 151.512,60.839" style="fill:rgb(0,174,239);"/>
        </g>
        <g transform="matrix(23.1623,0,0,-23.1623,-479.102,3501.16)">
            <path d="M42.113,88.176L60.867,88.176C72.184,88.176 80.637,81.117 80.637,66.687C80.637,54.039 74.152,44.695 60.867,44.695L42.113,44.695L42.113,88.176ZM51.715,52.703L60.23,52.703C65.762,52.703 71.039,56.137 71.039,65.734C71.039,74.57 67.988,80.164 58.516,80.164L51.715,80.164L51.715,52.703Z" style="fill:white;"/>
        </g>
        <g transform="matrix(23.1623,0,0,-23.1623,-479.102,3510.03)">
            <path d="M111.34,49.402C107.844,45.969 104.027,44.188 99.07,44.188C91.25,44.188 85.023,49.02 85.023,57.281C85.023,63.32 89.664,67.516 94.746,69.871C92.461,72.731 90.617,75.336 90.617,79.149C90.617,85.188 96.148,89.066 101.93,89.066C108.543,89.066 113.883,85.508 113.883,78.641C113.883,73.555 110.578,70.125 106.191,67.774L111.785,60.906C112.609,62.496 113.117,64.34 113.371,66.117L120.875,66.117C120.43,62.176 119.094,58.426 116.613,55.375L125.449,45.078L114.898,45.078L111.34,49.402ZM99.324,64.277C96.273,62.941 93.223,60.59 93.223,57.094C93.223,53.914 96.148,51.371 99.453,51.371C102.566,51.371 104.727,52.899 106.762,55.184L99.324,64.277ZM102.375,83.281C100.277,83.281 98.5,81.691 98.5,79.406C98.5,76.672 100.277,74.953 101.867,72.922C104.348,74.508 106.316,75.973 106.316,79.149C106.316,81.375 104.539,83.281 102.375,83.281" style="fill:white;"/>
        </g>
        <g transform="matrix(23.1623,0,0,-23.1623,-479.102,3501.16)">
            <path d="M129.012,88.176L147.762,88.176C159.016,88.176 167.531,81.117 167.531,66.687C167.531,54.039 161.047,44.695 147.762,44.695L129.012,44.695L129.012,88.176ZM138.547,52.703L147.129,52.703C152.656,52.703 157.934,56.137 157.934,65.734C157.934,74.57 154.883,80.164 145.41,80.164L138.547,80.164L138.547,52.703Z" style="fill:white;"/>
        </g>
        <g transform="matrix(23.1623,0,0,-23.1623,-479.102,5702.29)">
            <path d="M38.875,117.543L39.508,117.543L39.508,113.156C39.508,111.504 40.336,110.929 41.605,110.929C42.879,110.929 43.703,111.504 43.703,113.156L43.703,117.543L44.34,117.543L44.34,113.027C44.34,111.566 43.578,110.359 41.605,110.359C39.637,110.359 38.875,111.566 38.875,113.027L38.875,117.543Z" style="fill:rgb(0,174,239);"/>
        </g>
        <g transform="matrix(23.1623,0,0,-23.1623,-479.102,5742.11)">
            <path d="M45.547,117.289L46.184,117.289L46.184,116.398C46.438,117.035 47.137,117.418 47.836,117.418C49.297,117.418 49.68,116.719 49.68,115.445L49.68,112.203L49.109,112.203L49.109,115.383C49.109,116.273 48.789,116.91 47.773,116.91C46.82,116.91 46.184,116.144 46.184,115.191L46.184,112.203L45.547,112.203L45.547,117.289Z" style="fill:rgb(0,174,239);"/>
        </g>
        <g transform="matrix(23.1623,0,0,-23.1623,-479.102,5699.4)">
            <path d="M53.746,117.418L54.703,117.418L57.18,111.25L59.594,117.418L60.551,117.418L60.551,110.359L59.914,110.359L59.914,116.464L59.852,116.464L57.5,110.359L56.863,110.359L54.445,116.464L54.383,116.464L54.383,110.359L53.746,110.359L53.746,117.418Z" style="fill:rgb(0,174,239);"/>
        </g>
        <g transform="matrix(23.1623,0,0,-23.1623,-479.102,5747.99)">
            <path d="M65.953,112.457L65.379,112.457L65.379,113.348C65.063,112.711 64.363,112.332 63.602,112.332C62.328,112.332 61.82,113.031 61.82,114.238L61.82,117.543L62.457,117.543L62.457,114.238C62.52,113.285 62.836,112.84 63.855,112.84C64.871,112.84 65.379,113.855 65.379,114.875L65.379,117.543L65.953,117.543L65.953,112.457Z" style="fill:rgb(0,174,239);"/>
        </g>
        <g transform="matrix(23.1623,0,0,-23.1623,-479.102,5742.11)">
            <path d="M67.16,117.289L67.797,117.289L67.797,116.398C67.988,117.035 68.684,117.418 69.387,117.418C70.848,117.418 71.293,116.719 71.293,115.445L71.293,112.203L70.656,112.203L70.656,115.383C70.656,116.273 70.402,116.91 69.387,116.91C68.367,116.91 67.797,116.144 67.797,115.191L67.797,112.203L67.16,112.203L67.16,117.289Z" style="fill:rgb(0,174,239);"/>
        </g>
        <g transform="matrix(23.1623,0,0,-23.1623,-479.102,5702.29)">
            <path d="M76.949,110.484L76.379,110.484L76.379,111.441C76.059,110.804 75.297,110.359 74.535,110.359C73.008,110.359 72.246,111.566 72.246,113.027C72.246,114.492 73.008,115.699 74.535,115.699C75.297,115.699 76.059,115.316 76.313,114.617L76.313,117.543L76.949,117.543L76.949,110.484ZM74.535,110.867C75.867,110.867 76.313,111.949 76.313,113.027C76.313,114.109 75.867,115.191 74.535,115.191C73.328,115.191 72.883,114.109 72.883,113.027C72.883,111.949 73.328,110.867 74.535,110.867" style="fill:rgb(0,174,239);"/>
        </g>
        <g transform="matrix(23.1623,0,0,-23.1623,-479.102,5745.01)">
            <path d="M82.672,114.871C82.672,113.41 81.844,112.203 80.254,112.203C78.73,112.203 77.84,113.41 77.84,114.871C77.84,116.336 78.73,117.543 80.254,117.543C81.844,117.543 82.672,116.336 82.672,114.871M78.477,114.871C78.477,113.793 79.109,112.711 80.254,112.711C81.461,112.711 82.035,113.793 82.035,114.871C82.035,115.953 81.461,117.035 80.254,117.035C79.109,117.035 78.477,115.953 78.477,114.871" style="fill:rgb(0,174,239);"/>
        </g>
        <g transform="matrix(23.1623,0,0,-23.1623,-479.102,5702.29)">
            <path d="M90.871,110.484L90.297,110.484L90.297,111.441L90.234,111.441C89.98,110.804 89.156,110.359 88.457,110.359C86.867,110.359 86.168,111.566 86.168,113.027C86.168,114.492 86.867,115.699 88.457,115.699C89.219,115.699 89.918,115.316 90.172,114.617L90.234,114.617L90.234,117.543L90.871,117.543L90.871,110.484ZM88.457,110.867C89.727,110.867 90.234,111.949 90.234,113.027C90.234,114.109 89.727,115.191 88.457,115.191C87.246,115.191 86.738,114.109 86.738,113.027C86.738,111.949 87.246,110.867 88.457,110.867" style="fill:rgb(0,174,239);"/>
        </g>
        <g transform="matrix(23.1623,0,0,-23.1623,-479.102,5745.01)">
            <path d="M92.395,114.68C92.395,113.793 92.906,112.711 94.051,112.711C95.004,112.711 95.445,113.219 95.699,113.984L96.273,113.984C96.02,112.84 95.383,112.203 94.051,112.203C92.461,112.203 91.762,113.41 91.762,114.871C91.762,116.207 92.461,117.543 94.051,117.543C95.699,117.543 96.336,116.144 96.336,114.68L92.395,114.68ZM95.699,115.254C95.637,116.144 95.066,117.035 94.051,117.035C93.031,117.035 92.523,116.144 92.395,115.254L95.699,115.254Z" style="fill:rgb(0,174,239);"/>
        </g>
        <g transform="matrix(23.1623,0,0,-23.1623,-479.102,5699.4)">
            <rect x="100.09" y="110.359" width="0.633" height="7.059" style="fill:rgb(0,174,239);"/>
        </g>
        <g transform="matrix(23.1623,0,0,-23.1623,-479.102,5702.29)">
            <path d="M106.57,110.484L106,110.484L106,111.441C105.746,110.804 104.918,110.359 104.156,110.359C102.629,110.359 101.867,111.566 101.867,113.027C101.867,114.492 102.629,115.699 104.156,115.699C104.918,115.699 105.68,115.316 105.938,114.617L105.938,117.543L106.57,117.543L106.57,110.484ZM104.156,110.867C105.492,110.867 105.938,111.949 105.938,113.027C105.938,114.109 105.492,115.191 104.156,115.191C102.949,115.191 102.504,114.109 102.504,113.027C102.504,111.949 102.949,110.867 104.156,110.867" style="fill:rgb(0,174,239);"/>
        </g>
        <g transform="matrix(23.1623,0,0,-23.1623,-479.102,5745.01)">
            <path d="M108.098,114.68C108.16,113.793 108.605,112.711 109.813,112.711C110.703,112.711 111.211,113.219 111.402,113.984L112.039,113.984C111.785,112.84 111.086,112.203 109.813,112.203C108.16,112.203 107.523,113.41 107.523,114.871C107.523,116.207 108.16,117.543 109.813,117.543C111.465,117.543 112.102,116.144 112.039,114.68L108.098,114.68ZM111.402,115.254C111.402,116.144 110.832,117.035 109.813,117.035C108.797,117.035 108.223,116.144 108.098,115.254L111.402,115.254Z" style="fill:rgb(0,174,239);"/>
        </g>
        <g transform="matrix(23.1623,0,0,-23.1623,-479.102,5745.01)">
            <path d="M112.801,115.824C112.863,117.035 113.691,117.543 114.898,117.543C115.789,117.543 116.742,117.289 116.742,115.953L116.742,113.219C116.742,112.965 116.867,112.836 117.125,112.836C117.188,112.836 117.25,112.836 117.313,112.902L117.313,112.394C117.188,112.328 117.059,112.328 116.934,112.328C116.297,112.328 116.172,112.648 116.172,113.219C115.727,112.519 115.281,112.203 114.328,112.203C113.371,112.203 112.609,112.648 112.609,113.664C112.609,115.125 114.008,115.125 115.344,115.316C115.852,115.383 116.172,115.445 116.172,116.016C116.172,116.844 115.535,117.035 114.836,117.035C114.008,117.035 113.438,116.715 113.438,115.824L112.801,115.824ZM116.172,115.125L116.105,115.125C116.043,114.937 115.789,114.937 115.598,114.871C114.516,114.683 113.246,114.683 113.246,113.726C113.246,113.094 113.754,112.711 114.391,112.711C115.344,112.711 116.172,113.281 116.172,114.301L116.172,115.125Z" style="fill:rgb(0,174,239);"/>
        </g>
        <g transform="matrix(23.1623,0,0,-23.1623,-479.102,5745.01)">
            <path d="M121.066,115.953C121,116.715 120.43,117.035 119.73,117.035C119.156,117.035 118.523,116.844 118.523,116.144C118.523,115.637 119.156,115.445 119.602,115.316L120.43,115.125C121.129,115 121.891,114.617 121.891,113.726C121.891,112.582 120.746,112.203 119.793,112.203C118.648,112.203 117.824,112.711 117.695,113.98L118.332,113.98C118.395,113.156 119.031,112.711 119.855,112.711C120.43,112.711 121.254,112.965 121.254,113.664C121.254,114.238 120.684,114.426 120.109,114.617L119.348,114.746C118.523,115 117.887,115.254 117.887,116.144C117.887,117.16 118.902,117.543 119.793,117.543C120.813,117.543 121.637,117.035 121.699,115.953L121.066,115.953Z" style="fill:rgb(0,174,239);"/>
        </g>
        <g transform="matrix(23.1623,0,0,-23.1623,-479.102,6113.17)">
            <path d="M47.328,125.809L47.836,125.809L47.836,124.918C48.09,125.555 48.727,125.934 49.426,125.934C50.758,125.934 51.461,124.793 51.461,123.582C51.461,122.313 50.758,121.231 49.426,121.231C48.789,121.231 48.152,121.551 47.898,122.184L47.898,119.707L47.328,119.707L47.328,125.809ZM49.426,125.426C48.219,125.426 47.898,124.602 47.898,123.582C47.898,122.629 48.281,121.676 49.426,121.676C50.441,121.676 50.887,122.629 50.887,123.582C50.887,124.473 50.441,125.426 49.426,125.426" style="fill:rgb(0,174,239);"/>
        </g>
        <g transform="matrix(23.1623,0,0,-23.1623,-479.102,6077.78)">
            <path d="M52.223,122.883C52.285,123.965 52.984,124.41 54.004,124.41C54.828,124.41 55.652,124.152 55.652,122.945L55.652,120.593C55.652,120.402 55.781,120.277 55.973,120.277L56.164,120.277L56.164,119.832L55.781,119.832C55.273,119.832 55.145,120.148 55.145,120.593C54.766,120.023 54.383,119.703 53.559,119.703C52.73,119.703 52.031,120.086 52.031,120.976C52.031,122.246 53.238,122.246 54.445,122.437C54.891,122.437 55.145,122.5 55.145,123.011C55.145,123.773 54.574,123.898 53.938,123.898C53.305,123.898 52.793,123.644 52.793,122.883L52.223,122.883ZM55.145,122.246L55.082,122.246C55.02,122.121 54.766,122.058 54.637,122.058C53.75,121.867 52.602,121.867 52.602,121.039C52.602,120.468 53.047,120.148 53.559,120.148C54.383,120.148 55.145,120.656 55.145,121.547L55.145,122.246Z" style="fill:rgb(0,174,239);"/>
        </g>
        <g transform="matrix(23.1623,0,0,-23.1623,-479.102,6076.34)">
            <path d="M56.734,124.219L57.246,124.219L57.246,123.137C57.563,123.836 58.133,124.281 58.961,124.281L58.961,123.711C57.945,123.774 57.309,123.012 57.309,122.121L57.309,119.77L56.734,119.77L56.734,124.219Z" style="fill:rgb(0,174,239);"/>
        </g>
        <g transform="matrix(23.1623,0,0,-23.1623,-479.102,6077.78)">
            <path d="M59.406,122.883C59.469,123.965 60.168,124.41 61.25,124.41C62.012,124.41 62.836,124.152 62.836,122.945L62.836,120.593C62.836,120.402 62.965,120.277 63.156,120.277L63.348,120.277L63.348,119.832L62.965,119.832C62.457,119.832 62.328,120.148 62.328,120.593C61.949,120.023 61.566,119.703 60.738,119.703C59.914,119.703 59.215,120.086 59.215,120.976C59.215,122.246 60.422,122.246 61.629,122.437C62.074,122.437 62.328,122.5 62.328,123.011C62.328,123.773 61.758,123.898 61.121,123.898C60.484,123.898 59.977,123.644 59.977,122.883L59.406,122.883ZM62.328,122.246L62.266,122.246C62.203,122.121 62.012,122.058 61.82,122.058C60.93,121.867 59.785,121.867 59.785,121.039C59.785,120.468 60.23,120.148 60.738,120.148C61.566,120.148 62.328,120.656 62.328,121.547L62.328,122.246Z" style="fill:rgb(0,174,239);"/>
        </g>
        <g transform="matrix(23.1623,0,0,-23.1623,-479.102,6071.92)">
            <path d="M65.445,125.809L66.145,125.809L66.145,121.102C66.145,119.325 66.969,118.688 68.367,118.688C69.766,118.688 70.656,119.325 70.594,121.102L70.594,125.809L71.355,125.809L71.355,120.977C71.355,119.387 70.527,118.051 68.367,118.051C66.27,118.051 65.445,119.387 65.445,120.977L65.445,125.809Z" style="fill:rgb(46,48,146);"/>
        </g>
        <g transform="matrix(23.1623,0,0,-23.1623,-479.102,6111.62)">
            <path d="M72.691,125.426L73.328,125.426L73.328,124.472C73.582,125.172 74.344,125.617 75.105,125.617C76.633,125.617 77.141,124.789 77.141,123.453L77.141,119.957L76.441,119.957L76.441,123.39C76.441,124.281 76.125,125.043 75.043,125.043C74.027,125.043 73.328,124.215 73.328,123.136L73.328,119.957L72.691,119.957L72.691,125.426Z" style="fill:rgb(46,48,146);"/>
        </g>
        <g transform="matrix(23.1623,0,0,-23.1623,-479.102,6067.47)">
            <path d="M81.461,125.617L82.543,125.617L85.148,118.941L87.754,125.617L88.836,125.617L88.836,118.051L88.074,118.051L88.074,124.598L85.469,118.051L84.832,118.051L82.227,124.598L82.16,124.598L82.16,118.051L81.461,118.051L81.461,125.617Z" style="fill:rgb(46,48,146);"/>
        </g>
        <g transform="matrix(23.1623,0,0,-23.1623,-479.102,6120.49)">
            <path d="M94.684,120.34L94.051,120.34L94.051,121.293C93.668,120.594 92.969,120.148 92.141,120.148C90.742,120.148 90.172,120.977 90.172,122.246L90.172,125.809L90.871,125.809L90.871,122.246C90.871,121.23 91.254,120.723 92.332,120.723C93.477,120.723 93.984,121.801 93.984,122.945L93.984,125.809L94.684,125.809L94.684,120.34Z" style="fill:rgb(46,48,146);"/>
        </g>
        <g transform="matrix(23.1623,0,0,-23.1623,-479.102,6111.62)">
            <path d="M95.891,125.426L96.59,125.426L96.59,124.472C96.848,125.172 97.609,125.617 98.371,125.617C99.898,125.617 100.34,124.789 100.34,123.453L100.34,119.957L99.707,119.957L99.707,123.39C99.707,124.281 99.387,125.043 98.309,125.043C97.227,125.043 96.59,124.215 96.59,123.136L96.59,119.957L95.891,119.957L95.891,125.426Z" style="fill:rgb(46,48,146);"/>
        </g>
        <g transform="matrix(23.1623,0,0,-23.1623,-479.102,6071.92)">
            <path d="M106.445,118.243L105.871,118.243L105.871,119.262L105.809,119.262C105.555,118.563 104.664,118.051 103.902,118.051C102.184,118.051 101.422,119.387 101.422,120.977C101.422,122.501 102.184,123.899 103.902,123.899C104.664,123.899 105.492,123.454 105.746,122.692L105.809,122.692L105.809,125.809L106.445,125.809L106.445,118.243ZM103.902,118.626C105.301,118.626 105.809,119.833 105.809,120.977C105.809,122.122 105.301,123.329 103.902,123.329C102.566,123.329 102.059,122.122 102.059,120.977C102.059,119.833 102.566,118.626 103.902,118.626" style="fill:rgb(46,48,146);"/>
        </g>
        <g transform="matrix(23.1623,0,0,-23.1623,-479.102,6116.16)">
            <path d="M112.676,122.887C112.676,121.297 111.719,119.961 110.066,119.961C108.352,119.961 107.461,121.297 107.461,122.887C107.461,124.477 108.352,125.809 110.066,125.809C111.719,125.809 112.676,124.477 112.676,122.887M108.16,122.887C108.16,121.68 108.797,120.536 110.066,120.536C111.34,120.536 111.977,121.68 111.977,122.887C111.977,124.032 111.34,125.239 110.066,125.239C108.797,125.239 108.16,124.032 108.16,122.887" style="fill:rgb(46,48,146);"/>
        </g>
        <g transform="matrix(23.1623,0,0,-23.1623,-479.102,6071.92)">
            <path d="M121.445,118.243L120.813,118.243L120.813,119.262C120.492,118.563 119.668,118.051 118.84,118.051C117.188,118.051 116.359,119.387 116.359,120.977C116.359,122.501 117.188,123.899 118.84,123.899C119.668,123.899 120.492,123.454 120.746,122.692L120.746,125.809L121.445,125.809L121.445,118.243ZM118.84,118.626C120.301,118.626 120.746,119.833 120.746,120.977C120.746,122.122 120.301,123.329 118.84,123.329C117.566,123.329 117.059,122.122 117.059,120.977C117.059,119.833 117.566,118.626 118.84,118.626" style="fill:rgb(46,48,146);"/>
        </g>
        <g transform="matrix(23.1623,0,0,-23.1623,-479.102,6116.07)">
            <path d="M123.098,122.692C123.098,121.739 123.672,120.532 124.941,120.532C125.895,120.532 126.469,121.102 126.66,121.93L127.293,121.93C127.039,120.723 126.34,119.957 124.941,119.957C123.164,119.957 122.465,121.293 122.465,122.883C122.465,124.344 123.164,125.809 124.941,125.809C126.723,125.809 127.422,124.219 127.359,122.692L123.098,122.692ZM126.66,123.266C126.66,124.282 126.023,125.235 124.941,125.235C123.863,125.235 123.227,124.282 123.098,123.266L126.66,123.266Z" style="fill:rgb(46,48,146);"/>
        </g>
        <g transform="matrix(23.1623,0,0,-23.1623,-479.102,6067.56)">
            <path d="M136.895,123.332C136.641,124.477 135.684,125.176 134.539,125.176C132.57,125.176 131.68,123.524 131.68,121.805C131.68,120.152 132.57,118.5 134.539,118.5C135.938,118.5 136.828,119.582 137.02,120.918L137.719,120.918C137.527,119.07 136.32,117.863 134.539,117.863C132.188,117.863 130.98,119.77 130.98,121.805C130.98,123.902 132.188,125.809 134.539,125.809C136.004,125.809 137.402,124.922 137.594,123.332L136.895,123.332Z" style="fill:rgb(46,48,146);"/>
        </g>
        <g transform="matrix(23.1623,0,0,-23.1623,-479.102,6067.47)">
            <rect x="138.734" y="118.051" width="0.637" height="7.566" style="fill:rgb(46,48,146);"/>
        </g>
        <g transform="matrix(23.1623,0,0,-23.1623,-479.102,6067.47)">
            <path d="M140.645,125.617L141.344,125.617L141.344,124.535L140.645,124.535L140.645,125.617ZM140.645,123.52L141.344,123.52L141.344,118.051L140.645,118.051L140.645,123.52Z" style="fill:rgb(46,48,146);"/>
        </g>
        <g transform="matrix(23.1623,0,0,-23.1623,-479.102,6116.07)">
            <path d="M142.996,122.692C143.059,121.739 143.566,120.532 144.84,120.532C145.793,120.532 146.363,121.102 146.555,121.93L147.254,121.93C146.938,120.723 146.238,119.957 144.84,119.957C143.059,119.957 142.359,121.293 142.359,122.883C142.359,124.344 143.059,125.809 144.84,125.809C146.617,125.809 147.316,124.219 147.254,122.692L142.996,122.692ZM146.555,123.266C146.555,124.282 145.918,125.235 144.84,125.235C143.758,125.235 143.121,124.282 142.996,123.266L146.555,123.266Z" style="fill:rgb(46,48,146);"/>
        </g>
        <g transform="matrix(23.1623,0,0,-23.1623,-479.102,6111.62)">
            <path d="M148.145,125.426L148.844,125.426L148.844,124.472C149.098,125.172 149.797,125.617 150.559,125.617C152.148,125.617 152.594,124.789 152.594,123.453L152.594,119.957L151.957,119.957L151.957,123.39C151.957,124.281 151.641,125.043 150.559,125.043C149.48,125.043 148.844,124.215 148.844,123.136L148.844,119.957L148.145,119.957L148.145,125.426Z" style="fill:rgb(46,48,146);"/>
        </g>
        <g transform="matrix(23.1623,0,0,-23.1623,-479.102,6079.24)">
            <path d="M154.945,124.028L156.027,124.028L156.027,123.453L154.945,123.453L154.945,119.766C154.945,119.321 155.008,119.067 155.453,119.067L156.027,119.067L156.027,118.496L155.453,118.496C154.566,118.496 154.246,118.75 154.246,119.703L154.246,123.453L153.293,123.453L153.293,124.028L154.246,124.028L154.246,125.68L154.945,125.68L154.945,124.028Z" style="fill:rgb(46,48,146);"/>
        </g>
        <g transform="matrix(23.1623,0,0,-23.1623,-479.102,6116.07)">
            <path d="M157.426,122.692C157.426,121.739 157.934,120.532 159.203,120.532C160.223,120.532 160.73,121.102 160.922,121.93L161.621,121.93C161.305,120.723 160.602,119.957 159.203,119.957C157.488,119.957 156.727,121.293 156.727,122.883C156.727,124.344 157.488,125.809 159.203,125.809C160.984,125.809 161.684,124.219 161.621,122.692L157.426,122.692ZM160.984,123.266C160.922,124.282 160.285,125.235 159.203,125.235C158.125,125.235 157.488,124.282 157.426,123.266L160.984,123.266Z" style="fill:rgb(46,48,146);"/>
        </g>
        <g transform="matrix(23.1623,0,0,-23.1623,-479.102,6116.16)">
            <path d="M165.816,124.032C165.816,124.856 165.18,125.239 164.418,125.239C163.781,125.239 163.082,124.985 163.082,124.286C163.082,123.649 163.781,123.457 164.227,123.332L165.117,123.141C165.879,123.012 166.707,122.571 166.707,121.614C166.707,120.407 165.496,119.961 164.48,119.961C163.211,119.961 162.32,120.598 162.254,121.934L162.891,121.934C162.957,120.981 163.656,120.536 164.543,120.536C165.117,120.536 166.008,120.79 166.008,121.551C166.008,122.25 165.434,122.442 164.797,122.571L163.973,122.758C163.082,123.012 162.445,123.332 162.445,124.223C162.445,125.368 163.527,125.809 164.48,125.809C165.563,125.809 166.449,125.239 166.516,124.032L165.816,124.032Z" style="fill:rgb(46,48,146);"/>
        </g>
        <g transform="matrix(23.1623,0,0,-23.1623,-479.102,4997.12)">
            <path d="M81.652,90.785L80.574,90.785L80.383,93.644L80.32,93.644C79.238,91.418 77.141,90.465 74.789,90.465C69.832,90.465 67.289,94.406 67.289,98.73C67.289,103.051 69.832,106.992 74.789,106.992C78.156,106.992 80.891,105.215 81.461,101.719L79.938,101.719C79.746,103.559 77.84,105.723 74.789,105.723C70.594,105.723 68.813,102.227 68.813,98.73C68.813,95.234 70.594,91.738 74.789,91.738C78.348,91.738 80.383,94.215 80.32,97.586L74.914,97.586L74.914,98.855L81.652,98.855L81.652,90.785Z" style="fill:rgb(46,48,146);"/>
        </g>
        <g transform="matrix(23.1623,0,0,-23.1623,-479.102,5094.31)">
            <path d="M84.324,106.485L85.594,106.485L85.594,103.751L85.66,103.751C86.355,105.594 87.945,106.676 89.98,106.61L89.98,105.215C87.438,105.34 85.723,103.497 85.723,101.083L85.723,94.977L84.324,94.977L84.324,106.485Z" style="fill:rgb(46,48,146);"/>
        </g>
        <g transform="matrix(23.1623,0,0,-23.1623,-479.102,5098.73)">
            <path d="M91.188,103.117C91.316,105.852 93.223,106.992 95.828,106.992C97.863,106.992 100.086,106.36 100.086,103.309L100.086,97.203C100.086,96.633 100.34,96.317 100.914,96.317C101.043,96.317 101.23,96.379 101.359,96.442L101.359,95.235C101.043,95.168 100.785,95.168 100.406,95.168C99.008,95.168 98.816,95.934 98.816,97.141L98.754,97.141C97.734,95.68 96.781,94.852 94.559,94.852C92.461,94.852 90.68,95.867 90.68,98.156C90.68,101.399 93.859,101.528 96.844,101.906C98.055,102.035 98.691,102.164 98.691,103.434C98.691,105.34 97.289,105.785 95.637,105.785C93.922,105.785 92.652,105.024 92.586,103.117L91.188,103.117ZM98.691,101.461L98.625,101.461C98.438,101.082 97.801,101.02 97.48,100.953C95.066,100.512 92.078,100.512 92.078,98.285C92.078,96.887 93.348,95.996 94.684,95.996C96.781,95.996 98.691,97.332 98.691,99.621L98.691,101.461Z" style="fill:rgb(46,48,146);"/>
        </g>
        <g transform="matrix(23.1623,0,0,-23.1623,-479.102,5190.04)">
            <path d="M102.883,110.618L104.156,110.618L104.156,108.391L104.219,108.391C104.855,109.981 106.445,110.934 108.352,110.934C111.848,110.934 113.5,108.075 113.5,104.833C113.5,101.591 111.848,98.794 108.352,98.794C106.637,98.794 104.918,99.622 104.348,101.274L104.285,101.274L104.285,94.852L102.883,94.852L102.883,110.618ZM108.352,109.727C105.238,109.727 104.285,107.438 104.285,104.833C104.285,102.481 105.363,99.938 108.352,99.938C111.023,99.938 112.102,102.481 112.102,104.833C112.102,107.247 111.023,109.727 108.352,109.727" style="fill:rgb(46,48,146);"/>
        </g>
        <g transform="matrix(23.1623,0,0,-23.1623,-479.102,4997.12)">
            <path d="M115.66,106.676L117.059,106.676L117.059,100.254L117.125,100.254C117.633,101.652 119.156,102.605 120.746,102.605C123.988,102.605 125.004,100.891 125.004,98.156L125.004,90.781L123.609,90.781L123.609,97.965C123.609,99.937 122.91,101.398 120.684,101.398C118.457,101.398 117.125,99.746 117.059,97.457L117.059,90.781L115.66,90.781L115.66,106.676Z" style="fill:rgb(46,48,146);"/>
        </g>
        <g transform="matrix(23.1623,0,0,-23.1623,-479.102,4997.12)">
            <path d="M127.676,106.676L129.074,106.676L129.074,104.449L127.676,104.449L127.676,106.676ZM127.676,102.289L129.074,102.289L129.074,90.781L127.676,90.781L127.676,102.289Z" style="fill:rgb(46,48,146);"/>
        </g>
        <g transform="matrix(23.1623,0,0,-23.1623,-479.102,5098.73)">
            <path d="M139.879,103.051C139.5,104.77 138.418,105.785 136.637,105.785C133.906,105.785 132.57,103.371 132.57,100.891C132.57,98.477 133.906,95.996 136.637,95.996C138.355,95.996 139.754,97.332 139.945,99.301L141.344,99.301C140.961,96.504 139.18,94.852 136.637,94.852C133.078,94.852 131.172,97.586 131.172,100.891C131.172,104.196 133.078,106.992 136.637,106.992C139.055,106.992 140.961,105.66 141.281,103.051L139.879,103.051Z" style="fill:rgb(46,48,146);"/>
        </g>
        <g transform="matrix(23.1623,0,0,-23.1623,-479.102,4754.1)">
            <path d="M146.047,96.184L146.047,93.77C146.047,92.496 145.41,91.16 144.078,90.781L144.078,91.735C144.84,91.988 145.156,93.067 145.094,93.832L144.203,93.832L144.203,96.184L146.047,96.184Z" style="fill:rgb(46,48,146);"/>
        </g>
        <g transform="matrix(23.1623,0,0,-23.1623,-479.102,5098.73)">
            <path d="M153.93,103.305C153.863,105.024 152.531,105.785 150.941,105.785C149.668,105.785 148.207,105.34 148.207,103.817C148.207,102.543 149.605,102.098 150.559,101.906L152.465,101.465C154.055,101.207 155.707,100.254 155.707,98.285C155.707,95.805 153.23,94.852 151.133,94.852C148.461,94.852 146.617,96.059 146.363,98.856L147.762,98.856C147.891,97.012 149.289,95.996 151.195,95.996C152.465,95.996 154.313,96.571 154.313,98.156C154.313,99.492 153.102,99.938 151.832,100.254L149.988,100.699C148.145,101.145 146.809,101.781 146.809,103.75C146.809,106.106 149.098,106.992 151.133,106.992C153.422,106.992 155.262,105.785 155.328,103.305L153.93,103.305Z" style="fill:rgb(46,48,146);"/>
        </g>
    </g>
</svg>
